<svg xmlns="http://www.w3.org/2000/svg" viewBox="0 0 458.9 127.7">
  <g data-name="Layer 2">
    <g data-name="Layer 1" fill="#725dff">
      <path d="M196 58.79a23.07 23.07 0 01-1.25 7.75 19.51 19.51 0 01-3.5 6.18 18.14 18.14 0 01-5.37 4.3A20.9 20.9 0 01179 79.2a23.5 23.5 0 014.39 1.16 11.82 11.82 0 013.86 2.34 11.27 11.27 0 012.74 4 16 16 0 011.05 6.22 14 14 0 01-1.16 5.61 14.7 14.7 0 01-3.21 4.71 15.21 15.21 0 01-4.9 3.21 16.35 16.35 0 01-6.24 1.18A10.35 10.35 0 01172 107a9.6 9.6 0 01-3.12-1.85 8.91 8.91 0 01-3-6.86 3.15 3.15 0 01.16-1.23.52.52 0 01.51-.33.63.63 0 01.53.29 2.25 2.25 0 01.36.69 7.22 7.22 0 002.65 3.59 7.1 7.1 0 004.21 1.36 7.65 7.65 0 003.77-.9 8.75 8.75 0 002.74-2.31 10.15 10.15 0 001.67-3.15 11 11 0 00.56-3.41 11.67 11.67 0 00-1.38-6 11.46 11.46 0 00-3.41-3.72 14.22 14.22 0 00-4.3-2 22.93 22.93 0 00-4.06-.73 1.22 1.22 0 01-.89-.38 1.26 1.26 0 01-.27-.82 1.7 1.7 0 01.27-.92 1 1 0 01.71-.47 27.16 27.16 0 007.58-1.58 14.52 14.52 0 005.33-3.39 13.47 13.47 0 003.14-5.28 23.55 23.55 0 001-7.31 13 13 0 00-1.33-5.86 14 14 0 00-3.68-4.63 17.24 17.24 0 00-5.48-3 20.54 20.54 0 00-6.8-1.1 34.1 34.1 0 00-6.73.69 21.74 21.74 0 00-6.24 2.26 13.65 13.65 0 00-4.61 4.12 10.7 10.7 0 00-1.81 6.35 14.25 14.25 0 00.49 3.74 22.94 22.94 0 001.16 3.26 20.59 20.59 0 001.34 2.52 15.58 15.58 0 001.07 1.53 3.24 3.24 0 01.4.63 1.41 1.41 0 01.18.62.85.85 0 01-.29.63 1.62 1.62 0 01-1 .26 7.82 7.82 0 01-2.83-.73 12.06 12.06 0 01-3.43-2.25 13.44 13.44 0 01-2.88-3.88 12.16 12.16 0 01-1.2-5.57 13.93 13.93 0 01.89-4.73 20.05 20.05 0 012.61-4.83 25.48 25.48 0 014.23-4.53 28.62 28.62 0 015.69-3.79 34.65 34.65 0 017.13-2.56 35.32 35.32 0 018.45-1 28.87 28.87 0 0110.85 1.83 21.68 21.68 0 017.42 4.74 18.48 18.48 0 014.26 6.53 20.19 20.19 0 011.38 7.25zm-32.67-6a4 4 0 011.25-1.58 3 3 0 011.83-.6 2.75 2.75 0 01.93.22.76.76 0 01.58.71 2.59 2.59 0 01-.07.65q-.06.28-.15.78c-.54 2.52-1 5.1-1.41 7.71s-.75 5.19-1 7.71-.55 5-.74 7.29-.34 4.49-.45 6.48-.17 3.75-.22 5.28-.06 2.76-.06 3.68v11.56a2.08 2.08 0 01-.09.6 1.44 1.44 0 01-.29.51.72.72 0 01-.56.22 2.53 2.53 0 01-1.07-.22 7.72 7.72 0 01-.94-.51 7.17 7.17 0 00-.86-.51 1.8 1.8 0 00-.83-.23 1.11 1.11 0 00-.8.31 1 1 0 01-.76.32 1.26 1.26 0 01-.85-.27 1.54 1.54 0 01-.44-.67 3.37 3.37 0 01-.16-.85v-.8c0-1.13 0-2.78.11-5s.19-4.76.34-7.73c.09-1.73.2-3.57.33-5.55s.29-4 .47-5.91.36-3.87.56-5.72.37-3.55.53-5.09.31-2.83.45-3.9.23-1.81.29-2.22c.2-1.31.42-2.42.64-3.35a5 5 0 01.74-1.87 3.39 3.39 0 01.75-.71 4.65 4.65 0 01.9-.51 2.71 2.71 0 011.03-.25zm56.54 32.38a.69.69 0 01.47.18.7.7 0 01.2.54 1.71 1.71 0 01-.14.67 38 38 0 01-1.4 3.52c-.52 1.1-1 2.08-1.45 2.94s-1.06 1.9-1.56 2.76a25.82 25.82 0 01-2.07 2.79 16.41 16.41 0 01-2.48 2.32 11.83 11.83 0 01-2.9 1.58 9.49 9.49 0 01-3.29.58 10.06 10.06 0 01-2.83-.45 7.24 7.24 0 01-2.86-1.65 9.17 9.17 0 01-2.18-3.3 14.16 14.16 0 01-.87-5.39 17 17 0 01.29-3.07 19 19 0 01.8-3 21.69 21.69 0 011.16-2.67 16.66 16.66 0 011.24-2.18 33.09 33.09 0 012.45-3 24.42 24.42 0 012.6-2.45 13.15 13.15 0 012.57-1.63 5.62 5.62 0 012.32-.58 4.05 4.05 0 013 1.3 5 5 0 011.27 3.7 10.15 10.15 0 01-1.07 4.32 25.26 25.26 0 01-2.67 4.39 36.71 36.71 0 01-3.44 4 39.7 39.7 0 01-3.34 3 6.66 6.66 0 002.05 2.94 4.17 4.17 0 002.54.94 5.54 5.54 0 003.59-1.27 14.83 14.83 0 002.85-3.17A28.08 28.08 0 00217 89.9c.64-1.37 1.21-2.57 1.72-3.61a3.73 3.73 0 01.53-.83.88.88 0 01.62-.29zm-17.34 2.14a24.45 24.45 0 00.4 4.64 24.89 24.89 0 001.81-2 22.58 22.58 0 001.65-2.34 14.22 14.22 0 001.2-2.45 6.87 6.87 0 00.47-2.41 4.38 4.38 0 00-.76-2.75 2 2 0 00-1.51-1 1.51 1.51 0 00-1 .56 5.89 5.89 0 00-1.07 1.62 12 12 0 00-.84 2.61 16.29 16.29 0 00-.35 3.52z"/>
      <path d="M251.78 85.17a.65.65 0 01.47.2.78.78 0 01.2.56 1.67 1.67 0 01-.13.67q-1.38 4-2.54 7a36.3 36.3 0 01-2.34 5 11.31 11.31 0 01-2.43 3 4.29 4.29 0 01-2.77 1 5 5 0 01-3-.87 6 6 0 01-1.82-2.25 10 10 0 01-.9-3.1 28 28 0 01-.22-3.41v-2.39c0-.79.06-1.53.11-2.25s.08-1.35.11-1.91 0-1 0-1.39a2 2 0 00-.29-1.22.75.75 0 00-1.31 0 3.56 3.56 0 00-.45.87c-.15.35-.37 1-.66 1.91s-.64 2-1 3.12l-1.23 3.64c-.43 1.26-.82 2.4-1.18 3.41a24.71 24.71 0 01-1.36 3.18 10.66 10.66 0 01-1.22 1.9 3.44 3.44 0 01-1.14.91 2.67 2.67 0 01-1.05.25 2.54 2.54 0 01-.91-.18 2.35 2.35 0 01-.85-.58 3.41 3.41 0 01-.64-1.09 4.9 4.9 0 01-.27-1.76c-.06-1.52-.1-3.16-.11-4.93s0-3.5 0-5.19v-4.32a8.91 8.91 0 00-.13-1.85c-.09-.37-.21-.56-.36-.56-.33 0-.6.32-.82 1s-.61 1.63-1.14 3a2.72 2.72 0 01-.56.93.87.87 0 01-.6.27.67.67 0 01-.47-.2 1 1 0 01-.2-.69 4.15 4.15 0 01.22-1c.15-.46.34-1 .56-1.52s.45-1.11.67-1.69.42-1.08.6-1.49c.27-.69.59-1.39 1-2.12a13.38 13.38 0 011.25-2 7.45 7.45 0 011.51-1.51 3 3 0 011.81-.6 2.8 2.8 0 012.29 1.42 8 8 0 011.1 4.33c0 1.54 0 3 .06 4.39s0 2.58.07 3.61.05 1.84.07 2.45a3.48 3.48 0 00.06.91c.06 0 .2-.26.4-.8s.48-1.24.81-2.12.69-1.87 1.11-3 .86-2.25 1.32-3.39.94-2.24 1.45-3.3a26 26 0 011.51-2.78 6.76 6.76 0 011.72-2 3.37 3.37 0 012.07-.67 2.45 2.45 0 012.32 1.89 15 15 0 01.71 5.1v2c0 .81-.07 1.59-.12 2.45S243 87.12 243 88v2.36a23.66 23.66 0 00.15 3 7.26 7.26 0 00.43 1.76 2 2 0 00.58.85 1.09 1.09 0 00.62.22 2.2 2.2 0 001.63-.8 9.11 9.11 0 001.4-2.19c.45-.92.89-2 1.34-3.14s.93-2.41 1.47-3.72c.23-.79.63-1.17 1.16-1.17z"/>
      <path d="M268.72 86.56c-1 2.73-1.81 5.11-2.56 7.13a36.31 36.31 0 01-2.3 5.06 9.8 9.8 0 01-2.49 3 5.22 5.22 0 01-3.21 1 5.14 5.14 0 01-2.28-.6 5.88 5.88 0 01-2.23-2.3 16.15 16.15 0 01-1.65-4.71 38.89 38.89 0 01-.67-8c0-.86 0-2 .11-3.41s.17-3 .27-4.72.23-3.58.38-5.53.31-3.9.49-5.86l-.4.06a2.41 2.41 0 01-.4 0c-1.61.18-2.78.33-3.52.46a3.15 3.15 0 00-1.34.43.52.52 0 00-.22.42 3.09 3.09 0 010 .45.63.63 0 01-.13.35c-.07.11-.23.16-.47.16a1.9 1.9 0 01-.55-.11 2.31 2.31 0 01-.67-.36 2 2 0 01-.56-.62A1.77 1.77 0 01244 68a2.8 2.8 0 01.2-1 5.2 5.2 0 01.51-1 13 13 0 01.91-1.29 10 10 0 011.61-1.54 12.58 12.58 0 012.47-1.45 15.92 15.92 0 013.48-1.06c.15-1.25.3-2.36.47-3.33s.33-1.82.51-2.58.35-1.44.51-2.05.34-1.17.51-1.67a7.35 7.35 0 011.34-2.65c.54-.61 1.15-1.26 1.83-1.94a8 8 0 011.89-1.5 4.22 4.22 0 011.18-.42 1.18 1.18 0 01.74.25 1 1 0 01.33.87 3.54 3.54 0 010 .6q0 .24-.09.42-.13.5-.42 1.74c-.2.83-.42 1.85-.67 3s-.51 2.56-.78 4.06-.51 3.1-.71 4.79a23.57 23.57 0 014 .6l2 .51a4 4 0 011 .49 2 2 0 01.49.76 2 2 0 00.42.58 5.74 5.74 0 00.49.4 2.35 2.35 0 01.43.4 1 1 0 01.17.63 1.56 1.56 0 01-.17.69.88.88 0 01-.41.42 4.12 4.12 0 01-1.15.34c-.57.1-1.25.2-2.06.31s-1.71.21-2.74.31l-3.18.33q-.54 5.53-1.05 10.66c-.34 3.41-.51 6.46-.51 9.13a26.87 26.87 0 00.24 3.75 13.07 13.07 0 00.74 2.92 5.28 5.28 0 001.18 1.89 2.2 2.2 0 001.58.67 2 2 0 001.47-.74 9.53 9.53 0 001.34-2c.44-.87.9-1.89 1.36-3.08s1-2.5 1.49-3.92c.27-.74.65-1.12 1.16-1.12s.71.27.71.81a1.25 1.25 0 010 .31 1.39 1.39 0 01-.1.26z"/>
      <path d="M297.38 86.56c-.95 2.64-1.81 5-2.56 7a36 36 0 01-2.3 5 9.8 9.8 0 01-2.52 3.05 5.15 5.15 0 01-3.18 1 3.89 3.89 0 01-2.63-.92 6.39 6.39 0 01-1.7-2.32 12.51 12.51 0 01-.89-3.09 20.76 20.76 0 01-.27-3.26v-2.19c0-.71 0-1.38.09-2a60 60 0 01-2 6.64 23.69 23.69 0 01-2 4.28 7 7 0 01-2.16 2.29 4.54 4.54 0 01-2.39.7 4.32 4.32 0 01-1.89-.47 4.51 4.51 0 01-1.76-1.81 12.5 12.5 0 01-1.31-3.76 31.51 31.51 0 01-.52-6.4c0-.65 0-1.45.05-2.39s.09-1.91.18-2.94.2-2 .33-3a21.89 21.89 0 01.51-2.69c.09-.36.21-.79.36-1.3a2.75 2.75 0 01.44-1 10.93 10.93 0 00.83-.8.89.89 0 01.56-.36.65.65 0 01.51.25.55.55 0 00.42.24 1.29 1.29 0 00.51-.22l.83-.49c.3-.18.59-.34.87-.49a1.52 1.52 0 01.6-.22c.36 0 .54.33.54 1a5.12 5.12 0 01-.05.62c0 .24-.07.52-.13.85-.27 1.9-.46 3.74-.56 5.5s-.19 3.64-.19 5.66c0 1.13 0 2.15.05 3.07a19 19 0 00.2 2.39 4 4 0 00.51 1.56 1.11 1.11 0 001 .55 2.06 2.06 0 001.65-1.18 13.91 13.91 0 001.4-3c.44-1.25.84-2.63 1.23-4.15s.76-3 1.11-4.43.73-2.77 1.1-4a12.34 12.34 0 011.13-2.76 4.62 4.62 0 011.54-1.47 3.49 3.49 0 011.81-.58 1.48 1.48 0 011.4.73 6.42 6.42 0 01.42 2.83c0 1 0 2-.09 2.86s-.11 1.81-.17 2.76-.12 2-.18 3-.11 2.3-.11 3.64a23.66 23.66 0 00.15 3 7.26 7.26 0 00.43 1.76 2 2 0 00.58.85 1.12 1.12 0 00.62.22 2 2 0 001.43-.67 8.71 8.71 0 001.36-1.94 30.4 30.4 0 001.42-3.1c.49-1.21 1-2.6 1.63-4.14a2.39 2.39 0 01.54-.83 1 1 0 01.66-.29.65.65 0 01.47.2.74.74 0 01.2.56 1.58 1.58 0 01-.11.6z"/>
      <path d="M324.17 85.17a.65.65 0 01.46.2.74.74 0 01.2.56 1.58 1.58 0 01-.13.63c-.77 2.19-1.57 4.27-2.41 6.21a38 38 0 01-2.58 5.08 15.9 15.9 0 01-2.74 3.44 4.37 4.37 0 01-2.92 1.27 8.77 8.77 0 01-1.72-.27 8.43 8.43 0 01-2.74-1.34 17 17 0 01-3.34-3.23 27.26 27.26 0 01-3.52-6c0 1.75.08 3.15.15 4.19s.14 1.87.2 2.47a13.42 13.42 0 00.18 1.34 3.61 3.61 0 01.09.74.58.58 0 01-.4.62 7.94 7.94 0 01-.8.22.88.88 0 00-.54.31c-.15.18-.31.38-.49.58a2.6 2.6 0 01-.69.56 2.28 2.28 0 01-1.13.25 2.74 2.74 0 01-.94-.18 2.56 2.56 0 01-.91-.58 3.19 3.19 0 01-.72-1.09 5.25 5.25 0 01-.33-1.76c-.06-1.34-.11-2.77-.14-4.28s0-3 0-4.55c0-3.45.09-6.8.27-10.07s.41-6.49.71-9.65.61-6.29.94-9.38.65-6.15 1-9.18c.12-1.1.23-2.06.33-2.86a16.24 16.24 0 01.4-2.07 6.93 6.93 0 01.58-1.45 4.08 4.08 0 01.83-1l1.29-1.14c.41-.37.82-.71 1.2-1a7.52 7.52 0 011.09-.76 1.87 1.87 0 01.92-.29 1 1 0 01.82.38 2 2 0 01.34 1.36 25.24 25.24 0 01-.36 3q-.36 2.3-.91 6.69t-1.27 11.14Q303.66 71 303 80.63c-.08 1.16-.15 2.34-.2 3.54s-.06 2.31-.06 3.32v.27c.26-.48.5-.9.71-1.27s.42-.71.62-1a11.31 11.31 0 01.7-.93l.86-1.09q1.56-2 2.88-3.37c.88-.94 1.46-1.58 1.76-1.94a3.38 3.38 0 00.31-.6 7 7 0 01.36-.74 8.72 8.72 0 01.6-.89 6 6 0 011.05-1 4.14 4.14 0 012-1.07.77.77 0 01.52.22 2 2 0 01.4.54 3.44 3.44 0 01.24.66 2.57 2.57 0 01.09.58 1.81 1.81 0 01-.07.52 1.64 1.64 0 01-.29.55 8.84 8.84 0 01-.6.72l-1.11 1.27-1.36 1.54-1.41 1.48-1.16 1.32a10.27 10.27 0 00-.69.84 9 9 0 00-.78 1.14 2.3 2.3 0 00-.29 1.14 4.74 4.74 0 00.36 1.65 17.14 17.14 0 001.16 2.36 13.9 13.9 0 003.43 4.3 5.77 5.77 0 003.56 1.31 2.37 2.37 0 001.63-.82 11.11 11.11 0 001.64-2.18 30 30 0 001.61-3.12c.52-1.15 1-2.34 1.54-3.56.26-.77.65-1.15 1.16-1.15zm46.75-31.69a19.25 19.25 0 01-.6 4.77 18.39 18.39 0 01-1.9 4.64 15.38 15.38 0 01-2.87 3.7 20 20 0 01-3.45 2.61 16.9 16.9 0 01-3.5 1.56 10.81 10.81 0 01-3 .51 3.86 3.86 0 01-1.85-.36 1 1 0 01-.65-.89c0-.42.37-.77 1.12-1.07a15.28 15.28 0 002.11-1.25 12.92 12.92 0 002.81-2.65 17.16 17.16 0 002.48-4.28 15.78 15.78 0 001.06-6.08 13.57 13.57 0 00-.93-5.31 9.94 9.94 0 00-2.45-3.54 9.39 9.39 0 00-3.41-2 12.07 12.07 0 00-3.81-.63 11.94 11.94 0 00-7.36 2.45 20.08 20.08 0 00-5.52 6.71 37.32 37.32 0 00-3.48 10 60 60 0 00-1.2 12.32 47.55 47.55 0 00.73 8.76 33.24 33.24 0 002 6.86 21.13 21.13 0 002.94 5.08 18 18 0 003.56 3.46 13.93 13.93 0 003.86 2 12.68 12.68 0 003.85.62 14.68 14.68 0 006.09-1.22 16.89 16.89 0 004.81-3.3 22.81 22.81 0 003.72-4.82 40.51 40.51 0 002.81-5.81 1.81 1.81 0 01.6-.85 1.27 1.27 0 01.74-.27c.41 0 .62.24.62.72a6.89 6.89 0 01-.38 1.47c-.25.77-.61 1.69-1.07 2.76s-1 2.22-1.62 3.46a38.41 38.41 0 01-2.05 3.54 24.23 24.23 0 01-7.69 7.73 19.5 19.5 0 01-10.23 2.61 18.36 18.36 0 01-9.34-2.32 20.59 20.59 0 01-6.77-6.28 29 29 0 01-4.13-9.23 43.56 43.56 0 01-1.38-11.1 52.43 52.43 0 011.43-12.7 49.52 49.52 0 013.59-10.07 38.17 38.17 0 014.68-7.42 31.27 31.27 0 014.74-4.8 25.86 25.86 0 012.77-1.91 23.59 23.59 0 013.52-1.76 27.05 27.05 0 014.08-1.32 18.65 18.65 0 014.43-.52 16.22 16.22 0 016.44 1.23 14.56 14.56 0 014.88 3.32 14.76 14.76 0 013.1 4.9 16.27 16.27 0 011.07 5.97z"/>
      <path d="M386.61 85.17a.67.67 0 01.47.2.78.78 0 01.2.56 1.6 1.6 0 01-.14.63q-1 2.94-1.89 5.34t-1.76 4.28a22 22 0 01-2.47 4.3 5.76 5.76 0 01-2.66 2l-.8.18a5.64 5.64 0 01-.93.09 7.17 7.17 0 01-2.39-.45 5.69 5.69 0 01-2.36-1.69 9.87 9.87 0 01-1.81-3.5 20.09 20.09 0 01-.71-5.86q0-3.21.22-6.18t.67-6a12.23 12.23 0 011.63-2.52 15.66 15.66 0 011.94-2 11 11 0 011.8-1.27 3 3 0 011.23-.45c.12 0 .18.14.18.4a12.33 12.33 0 01-.11 1.23c-.08.58-.16 1.39-.25 2.43s-.19 2.37-.29 4-.19 3.59-.24 5.9a26.44 26.44 0 00.24 3.7 14.09 14.09 0 00.71 2.94 5.56 5.56 0 001.14 1.94 2 2 0 001.47.69 1.93 1.93 0 001.43-.73 9.57 9.57 0 001.33-2c.45-.88.91-1.92 1.39-3.12s1-2.5 1.51-3.9c.3-.76.71-1.14 1.25-1.14zm-5.93-29.64a1.29 1.29 0 01.13.58 2.54 2.54 0 01-1.06 1.79q-.9.8-1.65 1.56l-1.39 1.36a9.17 9.17 0 01-1.11 1 1.5 1.5 0 01-.8.36 1.07 1.07 0 01-.43-.09.86.86 0 01-.37-.4c-.36-.68-.72-1.4-1.07-2.14s-.68-1.44-1-2.09-.51-1.23-.69-1.72a3.62 3.62 0 01-.27-1 1.78 1.78 0 01.45-1.07 12 12 0 01.82-1l1.38-1.6q.73-.85 1.38-1.56c.43-.48.72-.79.87-.94.36-.41.66-.62.89-.62s.48.19.63.58c.09.21.29.65.6 1.33s.65 1.42 1 2.21.7 1.52 1 2.21z"/>
      <path d="M418.48 85.17a.67.67 0 01.47.2.78.78 0 01.2.56 1.67 1.67 0 01-.14.67q-1.38 4-2.54 7a34.1 34.1 0 01-2.34 5 11.31 11.31 0 01-2.43 3 4.26 4.26 0 01-2.76 1 4.91 4.91 0 01-3-.87 6.14 6.14 0 01-1.83-2.25 10.27 10.27 0 01-.89-3.1A26.14 26.14 0 01403 93v-2.39c0-.79.07-1.53.11-2.25s.08-1.35.11-1.91 0-1 0-1.39a2 2 0 00-.29-1.22.82.82 0 00-.65-.38.82.82 0 00-.67.38 3.93 3.93 0 00-.44.87c-.15.35-.37 1-.67 1.91s-.64 2-1 3.12-.79 2.37-1.22 3.64-.83 2.4-1.18 3.41a26.21 26.21 0 01-1.36 3.18 10.1 10.1 0 01-1.23 1.9 3.32 3.32 0 01-1.13.91 2.71 2.71 0 01-1.05.25 2.5 2.5 0 01-.91-.18 2.19 2.19 0 01-.85-.58 3.42 3.42 0 01-.65-1.09 4.9 4.9 0 01-.27-1.76c-.05-1.52-.09-3.16-.11-4.93s0-3.5 0-5.19v-4.32a8.74 8.74 0 00-.14-1.85c-.09-.37-.21-.56-.35-.56-.33 0-.61.32-.83 1s-.6 1.63-1.14 3a2.57 2.57 0 01-.55.93.9.9 0 01-.6.27.65.65 0 01-.47-.2.92.92 0 01-.2-.69 3.67 3.67 0 01.22-1c.15-.46.33-1 .56-1.52s.44-1.11.67-1.69.42-1.08.6-1.49a19.45 19.45 0 011-2.12 13.34 13.34 0 011.24-2 7.49 7.49 0 011.52-1.51 3 3 0 011.8-.6 2.82 2.82 0 012.3 1.42 8 8 0 011.09 4.33c0 1.54.05 3 .07 4.39s0 2.58.07 3.61.05 1.84.06 2.45a3.69 3.69 0 00.07.91c.06 0 .19-.26.4-.8s.47-1.24.8-2.12l1.12-3c.41-1.12.85-2.25 1.31-3.39s.94-2.24 1.45-3.3a26 26 0 011.52-2.78 6.6 6.6 0 011.71-2 3.39 3.39 0 012.07-.67 2.44 2.44 0 012.32 1.89A14.72 14.72 0 01410 81v2c0 .81-.07 1.59-.11 2.45s-.08 1.72-.11 2.58-.05 1.65-.05 2.36a21.65 21.65 0 00.16 3 6.88 6.88 0 00.42 1.76 2 2 0 00.58.85 1.14 1.14 0 00.63.22 2.19 2.19 0 001.62-.8 9.42 9.42 0 001.41-2.19c.44-.92.89-2 1.33-3.14s.94-2.41 1.47-3.72c.19-.82.59-1.2 1.13-1.2z"/>
      <path d="M435.41 86.56q-1.43 4.09-2.56 7.13a36.38 36.38 0 01-2.29 5.06 10 10 0 01-2.5 3 5.18 5.18 0 01-3.21 1 5.1 5.1 0 01-2.27-.6 5.81 5.81 0 01-2.23-2.3 15.87 15.87 0 01-1.69-4.74 38.19 38.19 0 01-.67-8c0-.86 0-2 .11-3.41s.16-3 .27-4.72.23-3.58.38-5.53.31-3.9.49-5.86l-.41.06a2.33 2.33 0 01-.4 0c-1.6.18-2.77.33-3.52.46a3.21 3.21 0 00-1.34.43.55.55 0 00-.22.42 3.17 3.17 0 010 .45.82.82 0 01-.13.35.54.54 0 01-.47.16 2 2 0 01-.56-.11 2.59 2.59 0 01-.67-.36 1.94 1.94 0 01-.55-.62 1.77 1.77 0 01-.23-.92 3 3 0 01.2-1 5.85 5.85 0 01.52-1 11.52 11.52 0 01.91-1.29 9.89 9.89 0 011.6-1.54 12.68 12.68 0 012.48-1.45 16 16 0 013.47-1.06c.15-1.25.31-2.36.47-3.33s.34-1.82.51-2.58.35-1.44.52-2.05.33-1.17.51-1.67a7.19 7.19 0 011.34-2.65c.53-.61 1.14-1.26 1.82-1.94a8.2 8.2 0 011.9-1.5 4.12 4.12 0 011.18-.42 1.15 1.15 0 01.73.25 1 1 0 01.34.87 3.45 3.45 0 01-.05.6c0 .16-.06.3-.08.42-.09.33-.24.91-.43 1.74s-.41 1.85-.67 3-.51 2.56-.78 4.06-.5 3.1-.71 4.79a23.42 23.42 0 014 .6l2 .51a4 4 0 011 .49 2 2 0 01.49.76 1.87 1.87 0 00.43.58 4.52 4.52 0 00.49.4 2.28 2.28 0 01.42.4 1 1 0 01.18.63 1.45 1.45 0 01-.18.69.86.86 0 01-.4.42 4.34 4.34 0 01-1.16.34c-.56.1-1.25.2-2.05.31s-1.72.21-2.74.31l-3.19.33q-.52 5.53-1.05 10.66c-.34 3.41-.51 6.46-.51 9.13a25.35 25.35 0 00.25 3.75 13.09 13.09 0 00.73 2.92 5.43 5.43 0 001.18 1.89 2.2 2.2 0 001.59.67 2 2 0 001.47-.74 9.53 9.53 0 001.33-2 31.35 31.35 0 001.36-3.08c.46-1.19 1-2.5 1.5-3.92.26-.74.65-1.12 1.15-1.12s.72.27.72.81a1.32 1.32 0 01-.05.31 1.39 1.39 0 01-.07.35z"/>
      <path d="M458.81 86.56q-1.33 4-2.49 7a37.38 37.38 0 01-2.32 5 10.3 10.3 0 01-2.47 3 4.61 4.61 0 01-2.92 1 2.56 2.56 0 01-1.85-.71 6.88 6.88 0 01-1.23-1.61 8.21 8.21 0 01-.73-1.71c-.17-.55-.28-.92-.34-1.1a1.07 1.07 0 01-.09-.26c0-.12-.07-.18-.13-.18s-.11 0-.16.13a1.82 1.82 0 01-.15.27 8.3 8.3 0 01-.72 1.16 13.21 13.21 0 01-1.44 1.74 10.73 10.73 0 01-2 1.58 4.46 4.46 0 01-2.4.69 3.4 3.4 0 01-2-.67 6.18 6.18 0 01-1.67-1.8 10.45 10.45 0 01-1.14-2.7 12.79 12.79 0 01-.42-3.34 21.3 21.3 0 011.23-7.29 23.64 23.64 0 014-6.84 22.63 22.63 0 012.83-2.94 20.54 20.54 0 012.92-2.17 14.42 14.42 0 012.74-1.31 7.08 7.08 0 012.25-.45 3.72 3.72 0 011.25.23 2.88 2.88 0 011.11.75 3.81 3.81 0 01.78 1.41 6.83 6.83 0 01.29 2.12 11.15 11.15 0 01-.42 2.89 11.49 11.49 0 01-1.25 2.92 7.73 7.73 0 01-2 2.25 4.41 4.41 0 01-2.72.89c-.62 0-.94-.23-.94-.71a9 9 0 01.25-1.6 10.28 10.28 0 00.25-2.14c0-.27 0-.59-.05-1a4.49 4.49 0 00-.22-1.09 2.45 2.45 0 00-.49-.89 1.07 1.07 0 00-.85-.36A2.62 2.62 0 00441 80a9.8 9.8 0 00-1.5 2.72 19.45 19.45 0 00-.91 3.35 16.93 16.93 0 00-.31 3 13.18 13.18 0 00.26 2.83 5.82 5.82 0 00.72 1.83 2.63 2.63 0 001 1 2.73 2.73 0 001.21.29 3.91 3.91 0 002.63-1 11.71 11.71 0 002-2.23c.57-.82 1-1.56 1.41-2.23s.67-1 .91-1 .45.31.53.93c.18 1.34.38 2.44.58 3.3a13.54 13.54 0 00.63 2 2.84 2.84 0 00.64 1 1 1 0 00.69.29 1.82 1.82 0 001.34-.78 10.44 10.44 0 001.34-2.11q.66-1.33 1.38-3.12c.48-1.19 1-2.46 1.52-3.79.32-.74.71-1.12 1.15-1.12s.67.27.67.81a1.85 1.85 0 01-.08.59zM58.9 110.43C38.29 99.85 16.52 80.38 15.68 55.62c-.26-6.7 1.43-14.28 6.42-19.28 10.72-10.72 28.32-5.76 38.28 3.42A43.73 43.73 0 0171.73 56l-10.13-.5c7.3-15.5 26.53-28 43.72-21.23 9.63 3.94 14.18 13.62 14.41 23.47.24 11.38-4.68 22.32-10.46 31.71-12.16 19-32.06 36.83-55.58 38.2A41.8 41.8 0 0127.83 120C11.12 108.29.7 88.51 0 68.27-.6 45.44 10.42 22 30 9.77 48.8-2.08 75.28-3.26 95.05 6.83s34.12 31.17 35.7 53.48c.7 21.87-8.87 44.64-27.11 57.28a66.73 66.73 0 01-14.39 7.6l-.45-1.11a60.7 60.7 0 0024.86-19.17c8.74-11.55 13-26.09 13-40.47a51.15 51.15 0 00-3.74-18.84c-7.41-19.13-24.54-34.69-45-38.06-17.4-2.87-36.55 1.11-49.8 13.09C11.4 35.71 4.39 61.11 11.58 82.52c4.27 12.79 13 24.49 24.86 31C60.85 126.25 86.66 103 98.77 83c4.53-7.63 9.17-17.48 8.39-26.46-.47-5.75-3.16-10.69-9.16-11.79-8.45-1.43-17.24 3.56-22.67 10.06-3.09 3.39-7.42 12.69-9.73 16.73L61.38 60a32.62 32.62 0 00-14.06-17c-4-2.32-9-3.78-13.49-3-13.1 2.54-11.45 21.72-7.59 31.35 5.12 13.16 15.37 24 26.26 32.86 2.25 1.82 4.59 3.56 7 5.17l-.58 1.05z"/>
    </g>
  </g>
</svg>
